# xmcd
#
# Track frame offsets: 
#        150
#        21940
#        43027
#        65187
#        86675
#        102895
#        120055
#        139535
#        155432
#        175217
#        194375
#        212757
#        233122
#
# Disc length: 3378 seconds
#
# Revision: 6
# Processed by: cddbd v1.5.2PL0 Copyright (c) Steve Scherf et al.
# Submitted via: ExactAudioCopyFreeDBPlugin 1.0
#
DISCID=ac0d300d
DTITLE=Stevie Nicks - Trouble In Shangri-La
DYEAR=2001
DGENRE=Rock
TTITLE0=Trouble In Shangri-La
TTITLE1=Candlebright
TTITLE2=Sorcerer
TTITLE3=Planets Of The Universe
TTITLE4=Every Day
TTITLE5=Too Far From Texas
TTITLE6=That Made Me Stronger
TTITLE7=It's Only Love
TTITLE8=Love Changes
TTITLE9=I Miss You
TTITLE10=Bombay Sapphires
TTITLE11=Fall From Grace
TTITLE12=Love Is
EXTD=UPC: 093624737223 - Catalogue #: 9362-47372-2 - Label: Reprise Reco
EXTD=rds - ASIN: B00005AXEL - Release Date: 2001 04 30 - Discogs: m122964
EXTD=,r1624747 - MUSICBRAINZ_ALBUMID: 99ca654a-f6d3-4385-afb5-ebee6d5e0
EXTD=ff5;
EXTT0=
EXTT1=
EXTT2=
EXTT3=
EXTT4=
EXTT5=
EXTT6=
EXTT7=
EXTT8=
EXTT9=
EXTT10=
EXTT11=
EXTT12=
PLAYORDER=
